<svg width="40" height="40" viewBox="0 0 24 24" fill="none" xmlns="http://www.w3.org/2000/svg">
<path d="M20.633 2.27599C19.907 2.15899 19.132 2.40299 18.459 2.64699C17.487 3.00099 16.389 3.57699 15.813 4.15299L14.203 5.85599L8.86899 3.83599C8.54753 3.70195 8.19408 3.66405 7.85151 3.72688C7.50894 3.78972 7.19195 3.95059 6.93899 4.18999L5.45999 5.58699C5.11999 5.90799 5.15999 6.47699 5.54299 6.74699L10.239 10.05L9.37699 10.962C8.85699 11.482 8.38099 11.99 8.02199 12.484C7.85746 12.7065 7.71289 12.9431 7.58999 13.191L5.45099 12.347C4.79099 12.087 4.05799 12.277 3.56499 12.744L2.48499 13.764C2.4081 13.8383 2.34784 13.9281 2.30818 14.0275C2.26852 14.1268 2.25036 14.2334 2.25489 14.3403C2.25943 14.4471 2.28656 14.5518 2.33449 14.6474C2.38242 14.743 2.45008 14.8274 2.53299 14.895L6.18399 17.817L9.10599 21.468C9.38599 21.818 9.92799 21.841 10.236 21.515L11.258 20.435C11.723 19.943 11.915 19.209 11.654 18.55L10.81 16.412C11.057 16.292 11.293 16.142 11.517 15.979C12.011 15.62 12.519 15.144 13.039 14.625L13.951 13.762L17.255 18.458C17.3199 18.5478 17.4037 18.6222 17.5004 18.6761C17.5972 18.73 17.7046 18.762 17.8151 18.7699C17.9256 18.7779 18.0365 18.7615 18.14 18.7219C18.2434 18.6823 18.337 18.6206 18.414 18.541L19.811 17.061C20.0502 16.8079 20.2109 16.4909 20.2736 16.1483C20.3362 15.8057 20.2982 15.4524 20.164 15.131L18.145 9.79699L19.848 8.18699C20.425 7.60999 21 6.51299 21.354 5.54099C21.598 4.86899 21.842 4.09299 21.725 3.36699C21.6882 3.09073 21.5615 2.83426 21.3645 2.6371C21.1676 2.43994 20.9112 2.31305 20.635 2.27599" fill="white"/>
<path fill-rule="evenodd" clip-rule="evenodd" d="M20.633 2.276C20.857 2.311 21.143 2.401 21.371 2.629C21.6 2.858 21.689 3.143 21.724 3.367C21.761 3.597 21.754 3.84 21.729 4.067C21.677 4.525 21.534 5.043 21.353 5.541C20.999 6.513 20.423 7.611 19.847 8.187L19.832 8.202L18.144 9.797L20.164 15.131C20.298 15.4525 20.3359 15.8059 20.2731 16.1485C20.2103 16.491 20.0494 16.808 19.81 17.061L18.413 18.541C18.3361 18.6209 18.2425 18.683 18.1389 18.7228C18.0353 18.7625 17.9242 18.779 17.8136 18.7711C17.7029 18.7632 17.5953 18.731 17.4984 18.6769C17.4016 18.6228 17.3178 18.5481 17.253 18.458L13.95 13.762L13.038 14.625C12.518 15.144 12.01 15.62 11.516 15.979C11.292 16.142 11.056 16.292 10.809 16.412L11.653 18.55C11.913 19.21 11.723 19.943 11.257 20.436L10.235 21.516C10.1607 21.5928 10.0711 21.653 9.97186 21.6926C9.87266 21.7323 9.7662 21.7505 9.65946 21.746C9.55273 21.7416 9.44814 21.7146 9.35258 21.6669C9.25702 21.6191 9.17265 21.5517 9.10501 21.469L6.18301 17.817L2.53201 14.895C2.44933 14.8274 2.3819 14.743 2.33415 14.6474C2.28641 14.5519 2.25943 14.4473 2.25499 14.3405C2.25055 14.2338 2.26875 14.1273 2.30839 14.0282C2.34804 13.929 2.40823 13.8393 2.48501 13.765L3.56501 12.744C4.05701 12.278 4.79101 12.086 5.45001 12.347L7.58901 13.192C7.70901 12.944 7.85901 12.708 8.02101 12.484C8.38001 11.99 8.85601 11.482 9.37601 10.962L10.238 10.05L5.54201 6.746C5.45209 6.68121 5.3775 6.59747 5.3235 6.50069C5.2695 6.40391 5.23741 6.29645 5.22949 6.18591C5.22157 6.07537 5.23803 5.96443 5.27769 5.86095C5.31734 5.75746 5.37924 5.66394 5.45901 5.587L6.93901 4.19C7.19208 3.95077 7.50912 3.79008 7.85168 3.72743C8.19425 3.66477 8.54764 3.70283 8.86901 3.837L14.203 5.856L15.798 4.168L15.813 4.153C16.39 3.576 17.487 3 18.46 2.647C18.958 2.466 19.476 2.323 19.934 2.271C20.161 2.246 20.404 2.239 20.634 2.276M16.88 5.207L14.95 7.249C14.8484 7.35677 14.7172 7.43204 14.5728 7.46532C14.4285 7.4986 14.2775 7.48839 14.139 7.436L8.32501 5.235L8.29501 5.223C8.24107 5.19948 8.1814 5.19235 8.12344 5.20248C8.06547 5.21262 8.01177 5.23957 7.96901 5.28L7.15601 6.048L11.81 9.322C12.178 9.582 12.233 10.123 11.923 10.451L10.458 12L10.444 12.014C9.93101 12.527 9.52201 12.968 9.23401 13.364C8.94301 13.767 8.82801 14.052 8.80901 14.255C8.79669 14.3702 8.75812 14.481 8.69625 14.5789C8.63439 14.6768 8.55088 14.7592 8.45216 14.8198C8.35344 14.8803 8.24213 14.9174 8.12682 14.9282C8.0115 14.939 7.89525 14.9232 7.78701 14.882L4.89901 13.741C4.63701 13.637 4.29901 14.112 4.14201 14.261L7.18501 16.697C7.22752 16.7327 7.26699 16.7718 7.30301 16.814L9.73801 19.857C9.88701 19.7 10.362 19.362 10.258 19.1L9.11801 16.213C9.07663 16.1048 9.06064 15.9885 9.07128 15.8731C9.08192 15.7577 9.11891 15.6464 9.17938 15.5475C9.23986 15.4487 9.32222 15.3651 9.42011 15.3031C9.518 15.2411 9.62881 15.2024 9.74401 15.19C9.94701 15.171 10.232 15.056 10.634 14.764C11.031 14.477 11.472 14.068 11.984 13.555L12 13.541L13.55 12.076C13.6288 12.0034 13.722 11.9483 13.8236 11.9143C13.9252 11.8804 14.0328 11.8684 14.1394 11.879C14.246 11.8897 14.3491 11.9229 14.4419 11.9763C14.5348 12.0297 14.6152 12.1022 14.678 12.189L17.952 16.843L18.72 16.03C18.7604 15.9874 18.7874 15.934 18.7977 15.8762C18.808 15.8184 18.8012 15.7589 18.778 15.705L18.765 15.675L16.565 9.86C16.5127 9.72169 16.5025 9.571 16.5356 9.42688C16.5686 9.28276 16.6436 9.15164 16.751 9.05L18.793 7.119C19.14 6.768 19.619 5.919 19.943 5.027C20.091 4.622 20.235 4.185 20.249 3.75C19.814 3.764 19.377 3.908 18.972 4.056C18.081 4.38 17.232 4.86 16.88 5.207Z" fill="#FF5E5E"/>
</svg>
